<?xml version="1.0" encoding="UTF-8" standalone="no"?>
<!DOCTYPE svg PUBLIC "-//W3C//DTD SVG 1.1//EN"
 "http://www.w3.org/Graphics/SVG/1.1/DTD/svg11.dtd">
<!-- Generated by graphviz version 2.38.0 (20140413.2041)
 -->
<!-- Title: dependencies Pages: 1 -->
<svg width="945pt" height="211pt"
 viewBox="0.00 0.00 945.00 211.00" xmlns="http://www.w3.org/2000/svg" xmlns:xlink="http://www.w3.org/1999/xlink">
<g id="graph0" class="graph" transform="scale(1 1) rotate(0) translate(4 207)">
<title>dependencies</title>
<polygon fill="white" stroke="none" points="-4,4 -4,-207 941,-207 941,4 -4,4"/>
<text text-anchor="start" x="447.509" y="-42.4" font-family="sans-serif" font-weight="bold" font-size="14.00">Legend</text>
<polygon fill="#ffffb3" stroke="none" points="234.5,-10 234.5,-30 254.5,-30 254.5,-10 234.5,-10"/>
<text text-anchor="start" x="258.129" y="-15.4" font-family="sans-serif" font-size="14.00"> &#160;Declarations</text>
<polygon fill="#8dd3c7" stroke="none" points="347.5,-10 347.5,-30 367.5,-30 367.5,-10 347.5,-10"/>
<text text-anchor="start" x="371.225" y="-15.4" font-family="sans-serif" font-size="14.00"> &#160;Module</text>
<polygon fill="#80b1d3" stroke="none" points="433.5,-10 433.5,-30 453.5,-30 453.5,-10 433.5,-10"/>
<text text-anchor="start" x="457.281" y="-15.4" font-family="sans-serif" font-size="14.00"> &#160;Bootstrap</text>
<polygon fill="#fdb462" stroke="none" points="530.5,-10 530.5,-30 550.5,-30 550.5,-10 530.5,-10"/>
<text text-anchor="start" x="554.173" y="-15.4" font-family="sans-serif" font-size="14.00"> &#160;Providers</text>
<polygon fill="#fb8072" stroke="none" points="626.5,-10 626.5,-30 646.5,-30 646.5,-10 626.5,-10"/>
<text text-anchor="start" x="650.226" y="-15.4" font-family="sans-serif" font-size="14.00"> &#160;Exports</text>
<g id="clust1" class="cluster"><title>cluster_GroceriesModule</title>
<polygon fill="none" stroke="black" stroke-dasharray="1,5" points="8,-70 8,-195 929,-195 929,-70 8,-70"/>
</g>
<g id="clust2" class="cluster"><title>cluster_GroceriesModule_declarations</title>
<polygon fill="none" stroke="black" points="484,-78 484,-130 921,-130 921,-78 484,-78"/>
</g>
<g id="clust6" class="cluster"><title>cluster_GroceriesModule_imports</title>
<polygon fill="none" stroke="black" points="16,-78 16,-130 476,-130 476,-78 16,-78"/>
</g>
<!-- GroceriesComponent -->
<g id="node1" class="node"><title>GroceriesComponent</title>
<polygon fill="#ffffb3" stroke="black" points="912.739,-122 777.261,-122 777.261,-86 912.739,-86 912.739,-122"/>
<text text-anchor="middle" x="845" y="-99.8" font-family="Times,serif" font-size="14.00">GroceriesComponent</text>
</g>
<!-- GroceriesModule -->
<g id="node4" class="node"><title>GroceriesModule</title>
<polygon fill="#8dd3c7" stroke="black" points="528.957,-187 525.957,-191 504.957,-191 501.957,-187 415.043,-187 415.043,-151 528.957,-151 528.957,-187"/>
<text text-anchor="middle" x="472" y="-164.8" font-family="Times,serif" font-size="14.00">GroceriesModule</text>
</g>
<!-- GroceriesComponent&#45;&gt;GroceriesModule -->
<g id="edge1" class="edge"><title>GroceriesComponent&#45;&gt;GroceriesModule</title>
<path fill="none" stroke="black" d="M845,-122.284C845,-143.321 845,-175 845,-175 845,-175 539.057,-175 539.057,-175"/>
<polygon fill="black" stroke="black" points="539.057,-171.5 529.057,-175 539.057,-178.5 539.057,-171.5"/>
</g>
<!-- GroceryListComponent -->
<g id="node2" class="node"><title>GroceryListComponent</title>
<polygon fill="#ffffb3" stroke="black" points="759.468,-122 610.532,-122 610.532,-86 759.468,-86 759.468,-122"/>
<text text-anchor="middle" x="685" y="-99.8" font-family="Times,serif" font-size="14.00">GroceryListComponent</text>
</g>
<!-- GroceryListComponent&#45;&gt;GroceriesModule -->
<g id="edge2" class="edge"><title>GroceryListComponent&#45;&gt;GroceriesModule</title>
<path fill="none" stroke="black" d="M685,-122.023C685,-139.373 685,-163 685,-163 685,-163 539.08,-163 539.08,-163"/>
<polygon fill="black" stroke="black" points="539.08,-159.5 529.08,-163 539.08,-166.5 539.08,-159.5"/>
</g>
<!-- ItemStatusPipe -->
<g id="node3" class="node"><title>ItemStatusPipe</title>
<polygon fill="#ffffb3" stroke="black" points="592.267,-122 491.733,-122 491.733,-86 592.267,-86 592.267,-122"/>
<text text-anchor="middle" x="542" y="-99.8" font-family="Times,serif" font-size="14.00">ItemStatusPipe</text>
</g>
<!-- ItemStatusPipe&#45;&gt;GroceriesModule -->
<g id="edge3" class="edge"><title>ItemStatusPipe&#45;&gt;GroceriesModule</title>
<path fill="none" stroke="black" d="M510.297,-122.106C510.297,-122.106 510.297,-140.991 510.297,-140.991"/>
<polygon fill="black" stroke="black" points="506.797,-140.991 510.297,-150.991 513.797,-140.991 506.797,-140.991"/>
</g>
<!-- NativeScriptModule -->
<g id="node5" class="node"><title>NativeScriptModule</title>
<polygon fill="#8dd3c7" stroke="black" points="468.306,-122 465.306,-126 444.306,-126 441.306,-122 337.694,-122 337.694,-86 468.306,-86 468.306,-122"/>
<text text-anchor="middle" x="403" y="-99.8" font-family="Times,serif" font-size="14.00">NativeScriptModule</text>
</g>
<!-- NativeScriptModule&#45;&gt;GroceriesModule -->
<g id="edge4" class="edge"><title>NativeScriptModule&#45;&gt;GroceriesModule</title>
<path fill="none" stroke="black" d="M441.587,-122.106C441.587,-122.106 441.587,-140.991 441.587,-140.991"/>
<polygon fill="black" stroke="black" points="438.087,-140.991 441.587,-150.991 445.087,-140.991 438.087,-140.991"/>
</g>
<!-- NativeScriptFormsModule -->
<g id="node6" class="node"><title>NativeScriptFormsModule</title>
<polygon fill="#8dd3c7" stroke="black" points="320.084,-122 317.084,-126 296.084,-126 293.084,-122 153.916,-122 153.916,-86 320.084,-86 320.084,-122"/>
<text text-anchor="middle" x="237" y="-99.8" font-family="Times,serif" font-size="14.00">NativeScriptFormsModule</text>
</g>
<!-- NativeScriptFormsModule&#45;&gt;GroceriesModule -->
<g id="edge5" class="edge"><title>NativeScriptFormsModule&#45;&gt;GroceriesModule</title>
<path fill="none" stroke="black" d="M237,-122.023C237,-139.373 237,-163 237,-163 237,-163 404.813,-163 404.813,-163"/>
<polygon fill="black" stroke="black" points="404.813,-166.5 414.813,-163 404.813,-159.5 404.813,-166.5"/>
</g>
<!-- groceriesRouting -->
<g id="node7" class="node"><title>groceriesRouting</title>
<polygon fill="#8dd3c7" stroke="black" points="136.419,-122 133.419,-126 112.419,-126 109.419,-122 23.5812,-122 23.5812,-86 136.419,-86 136.419,-122"/>
<text text-anchor="middle" x="80" y="-99.8" font-family="Times,serif" font-size="14.00">groceriesRouting</text>
</g>
<!-- groceriesRouting&#45;&gt;GroceriesModule -->
<g id="edge6" class="edge"><title>groceriesRouting&#45;&gt;GroceriesModule</title>
<path fill="none" stroke="black" d="M80,-122.284C80,-143.321 80,-175 80,-175 80,-175 405,-175 405,-175"/>
<polygon fill="black" stroke="black" points="405,-178.5 415,-175 405,-171.5 405,-178.5"/>
</g>
</g>
</svg>
