<?xml version="1.0" encoding="UTF-8" standalone="no"?>
<!DOCTYPE svg PUBLIC "-//W3C//DTD SVG 1.1//EN"
 "http://www.w3.org/Graphics/SVG/1.1/DTD/svg11.dtd">
<!-- Generated by graphviz version 2.38.0 (20140413.2041)
 -->
<!-- Title: dependencies Pages: 1 -->
<svg width="2233pt" height="420pt"
 viewBox="0.00 0.00 2233.00 420.00" xmlns="http://www.w3.org/2000/svg" xmlns:xlink="http://www.w3.org/1999/xlink">
<g id="graph0" class="graph" transform="scale(1 1) rotate(0) translate(4 416)">
<title>dependencies</title>
<polygon fill="white" stroke="none" points="-4,4 -4,-416 2229,-416 2229,4 -4,4"/>
<text text-anchor="start" x="1091.51" y="-42.4" font-family="sans-serif" font-weight="bold" font-size="14.00">Legend</text>
<polygon fill="#ffffb3" stroke="none" points="878.5,-10 878.5,-30 898.5,-30 898.5,-10 878.5,-10"/>
<text text-anchor="start" x="902.129" y="-15.4" font-family="sans-serif" font-size="14.00"> &#160;Declarations</text>
<polygon fill="#8dd3c7" stroke="none" points="991.5,-10 991.5,-30 1011.5,-30 1011.5,-10 991.5,-10"/>
<text text-anchor="start" x="1015.23" y="-15.4" font-family="sans-serif" font-size="14.00"> &#160;Module</text>
<polygon fill="#80b1d3" stroke="none" points="1077.5,-10 1077.5,-30 1097.5,-30 1097.5,-10 1077.5,-10"/>
<text text-anchor="start" x="1101.28" y="-15.4" font-family="sans-serif" font-size="14.00"> &#160;Bootstrap</text>
<polygon fill="#fdb462" stroke="none" points="1174.5,-10 1174.5,-30 1194.5,-30 1194.5,-10 1174.5,-10"/>
<text text-anchor="start" x="1198.17" y="-15.4" font-family="sans-serif" font-size="14.00"> &#160;Providers</text>
<polygon fill="#fb8072" stroke="none" points="1270.5,-10 1270.5,-30 1290.5,-30 1290.5,-10 1270.5,-10"/>
<text text-anchor="start" x="1294.23" y="-15.4" font-family="sans-serif" font-size="14.00"> &#160;Exports</text>
<g id="clust1" class="cluster"><title>cluster_AppModule</title>
<polygon fill="none" stroke="black" stroke-dasharray="1,5" points="8,-138 8,-404 1390,-404 1390,-138 8,-138"/>
</g>
<g id="clust2" class="cluster"><title>cluster_AppModule_declarations</title>
<polygon fill="none" stroke="black" points="1260,-214 1260,-266 1382,-266 1382,-214 1260,-214"/>
</g>
<g id="clust4" class="cluster"><title>cluster_AppModule_imports</title>
<polygon fill="none" stroke="black" points="480,-146 480,-266 1252,-266 1252,-146 480,-146"/>
</g>
<g id="clust6" class="cluster"><title>cluster_AppModule_bootstrap</title>
<polygon fill="none" stroke="black" points="776,-344 776,-396 900,-396 900,-344 776,-344"/>
</g>
<g id="clust7" class="cluster"><title>cluster_AppModule_providers</title>
<polygon fill="none" stroke="black" points="16,-214 16,-266 472,-266 472,-214 16,-214"/>
</g>
<g id="clust8" class="cluster"><title>cluster_GroceriesModule</title>
<polygon fill="none" stroke="black" stroke-dasharray="1,5" points="1398,-70 1398,-206 1894,-206 1894,-70 1398,-70"/>
</g>
<g id="clust9" class="cluster"><title>cluster_GroceriesModule_declarations</title>
<polygon fill="none" stroke="black" points="1406,-146 1406,-198 1843,-198 1843,-146 1406,-146"/>
</g>
<g id="clust10" class="cluster"><title>cluster_GroceriesModule_GroceriesComponent_providers</title>
<polygon fill="none" stroke="black" points="1406,-78 1406,-130 1566,-130 1566,-78 1406,-78"/>
</g>
<g id="clust13" class="cluster"><title>cluster_GroceriesModule_imports</title>
<polygon fill="none" stroke="black" points="1574,-78 1574,-130 1886,-130 1886,-78 1574,-78"/>
</g>
<g id="clust17" class="cluster"><title>cluster_LoginModule</title>
<polygon fill="none" stroke="black" stroke-dasharray="1,5" points="1957,-138 1957,-206 2217,-206 2217,-138 1957,-138"/>
</g>
<g id="clust18" class="cluster"><title>cluster_LoginModule_declarations</title>
<polygon fill="none" stroke="black" points="2079,-146 2079,-198 2209,-198 2209,-146 2079,-146"/>
</g>
<g id="clust20" class="cluster"><title>cluster_LoginModule_imports</title>
<polygon fill="none" stroke="black" points="1965,-146 1965,-198 2071,-198 2071,-146 1965,-146"/>
</g>
<!-- AppComponent -->
<g id="node1" class="node"><title>AppComponent</title>
<polygon fill="#ffffb3" stroke="black" points="1373.94,-258 1268.06,-258 1268.06,-222 1373.94,-222 1373.94,-258"/>
<text text-anchor="middle" x="1321" y="-235.8" font-family="Times,serif" font-size="14.00">AppComponent</text>
</g>
<!-- AppModule -->
<g id="node2" class="node"><title>AppModule</title>
<polygon fill="#8dd3c7" stroke="black" points="879.657,-323 876.657,-327 855.657,-327 852.657,-323 796.343,-323 796.343,-287 879.657,-287 879.657,-323"/>
<text text-anchor="middle" x="838" y="-300.8" font-family="Times,serif" font-size="14.00">AppModule</text>
</g>
<!-- AppComponent&#45;&gt;AppModule -->
<g id="edge1" class="edge"><title>AppComponent&#45;&gt;AppModule</title>
<path fill="none" stroke="black" d="M1321,-258.011C1321,-280.485 1321,-316 1321,-316 1321,-316 890.018,-316 890.018,-316"/>
<polygon fill="black" stroke="black" points="890.018,-312.5 880.018,-316 890.018,-319.5 890.018,-312.5"/>
</g>
<!-- AppComponent  -->
<g id="node9" class="node"><title>AppComponent </title>
<polygon fill="#80b1d3" stroke="black" points="892.439,-388 783.561,-388 783.561,-352 892.439,-352 892.439,-388"/>
<text text-anchor="middle" x="838" y="-365.8" font-family="Times,serif" font-size="14.00">AppComponent </text>
</g>
<!-- AppModule&#45;&gt;AppComponent  -->
<g id="edge8" class="edge"><title>AppModule&#45;&gt;AppComponent </title>
<path fill="none" stroke="black" stroke-dasharray="1,5" d="M838,-323.106C838,-323.106 838,-341.991 838,-341.991"/>
<polygon fill="black" stroke="black" points="834.5,-341.991 838,-351.991 841.5,-341.991 834.5,-341.991"/>
</g>
<!-- NativeScriptModule -->
<g id="node3" class="node"><title>NativeScriptModule</title>
<polygon fill="#8dd3c7" stroke="black" points="1244.31,-190 1241.31,-194 1220.31,-194 1217.31,-190 1113.69,-190 1113.69,-154 1244.31,-154 1244.31,-190"/>
<text text-anchor="middle" x="1179" y="-167.8" font-family="Times,serif" font-size="14.00">NativeScriptModule</text>
</g>
<!-- NativeScriptModule&#45;&gt;AppModule -->
<g id="edge2" class="edge"><title>NativeScriptModule&#45;&gt;AppModule</title>
<path fill="none" stroke="black" d="M1142.74,-190.076C1142.74,-225.796 1142.74,-302 1142.74,-302 1142.74,-302 889.734,-302 889.734,-302"/>
<polygon fill="black" stroke="black" points="889.734,-298.5 879.734,-302 889.734,-305.5 889.734,-298.5"/>
</g>
<!-- LoginModule -->
<g id="node7" class="node"><title>LoginModule</title>
<polygon fill="#8dd3c7" stroke="black" points="1244.49,-258 1241.49,-262 1220.49,-262 1217.49,-258 1151.51,-258 1151.51,-222 1244.49,-222 1244.49,-258"/>
<text text-anchor="middle" x="1198" y="-235.8" font-family="Times,serif" font-size="14.00">LoginModule</text>
</g>
<!-- NativeScriptModule&#45;&gt;LoginModule -->
<g id="edge20" class="edge"><title>NativeScriptModule&#45;&gt;LoginModule</title>
<path fill="none" stroke="black" d="M1170.03,-190.223C1170.03,-190.223 1170.03,-211.727 1170.03,-211.727"/>
<polygon fill="black" stroke="black" points="1166.53,-211.727 1170.03,-221.727 1173.53,-211.727 1166.53,-211.727"/>
</g>
<!-- GroceriesModule -->
<g id="node8" class="node"><title>GroceriesModule</title>
<polygon fill="#8dd3c7" stroke="black" points="1133.96,-258 1130.96,-262 1109.96,-262 1106.96,-258 1020.04,-258 1020.04,-222 1133.96,-222 1133.96,-258"/>
<text text-anchor="middle" x="1077" y="-235.8" font-family="Times,serif" font-size="14.00">GroceriesModule</text>
</g>
<!-- NativeScriptModule&#45;&gt;GroceriesModule -->
<g id="edge16" class="edge"><title>NativeScriptModule&#45;&gt;GroceriesModule</title>
<path fill="none" stroke="black" d="M1117.87,-190.223C1117.87,-190.223 1117.87,-211.727 1117.87,-211.727"/>
<polygon fill="black" stroke="black" points="1114.37,-211.727 1117.87,-221.727 1121.37,-211.727 1114.37,-211.727"/>
</g>
<!-- NativeScriptHttpModule -->
<g id="node4" class="node"><title>NativeScriptHttpModule</title>
<polygon fill="#8dd3c7" stroke="black" points="1095.69,-190 1092.69,-194 1071.69,-194 1068.69,-190 940.306,-190 940.306,-154 1095.69,-154 1095.69,-190"/>
<text text-anchor="middle" x="1018" y="-167.8" font-family="Times,serif" font-size="14.00">NativeScriptHttpModule</text>
</g>
<!-- NativeScriptHttpModule&#45;&gt;AppModule -->
<g id="edge3" class="edge"><title>NativeScriptHttpModule&#45;&gt;AppModule</title>
<path fill="none" stroke="black" d="M980.212,-190.149C980.212,-224.364 980.212,-295 980.212,-295 980.212,-295 889.899,-295 889.899,-295"/>
<polygon fill="black" stroke="black" points="889.899,-291.5 879.899,-295 889.899,-298.5 889.899,-291.5"/>
</g>
<!-- NativeScriptRouterModule -->
<g id="node5" class="node"><title>NativeScriptRouterModule</title>
<polygon fill="#8dd3c7" stroke="black" points="656.409,-190 653.409,-194 632.409,-194 629.409,-190 487.591,-190 487.591,-154 656.409,-154 656.409,-190"/>
<text text-anchor="middle" x="572" y="-167.8" font-family="Times,serif" font-size="14.00">NativeScriptRouterModule</text>
</g>
<!-- NativeScriptRouterModule&#45;&gt;AppModule -->
<g id="edge4" class="edge"><title>NativeScriptRouterModule&#45;&gt;AppModule</title>
<path fill="none" stroke="black" d="M572,-190.031C572,-224.422 572,-296 572,-296 572,-296 786.145,-296 786.145,-296"/>
<polygon fill="black" stroke="black" points="786.145,-299.5 796.145,-296 786.145,-292.5 786.145,-299.5"/>
</g>
<!-- NativeScriptRouterModule.forRoot(args) -->
<g id="node6" class="node"><title>NativeScriptRouterModule.forRoot(args)</title>
<polygon fill="#8dd3c7" stroke="black" points="922.098,-190 919.098,-194 898.098,-194 895.098,-190 673.902,-190 673.902,-154 922.098,-154 922.098,-190"/>
<text text-anchor="middle" x="798" y="-167.8" font-family="Times,serif" font-size="14.00">NativeScriptRouterModule.forRoot(args)</text>
</g>
<!-- NativeScriptRouterModule.forRoot(args)&#45;&gt;AppModule -->
<g id="edge5" class="edge"><title>NativeScriptRouterModule.forRoot(args)&#45;&gt;AppModule</title>
<path fill="none" stroke="black" d="M838,-190.214C838,-190.214 838,-276.579 838,-276.579"/>
<polygon fill="black" stroke="black" points="834.5,-276.579 838,-286.579 841.5,-276.579 834.5,-276.579"/>
</g>
<!-- LoginModule&#45;&gt;AppModule -->
<g id="edge6" class="edge"><title>LoginModule&#45;&gt;AppModule</title>
<path fill="none" stroke="black" d="M1198,-258.129C1198,-278.572 1198,-309 1198,-309 1198,-309 890.001,-309 890.001,-309"/>
<polygon fill="black" stroke="black" points="890.001,-305.5 880.001,-309 890.001,-312.5 890.001,-305.5"/>
</g>
<!-- GroceriesModule&#45;&gt;AppModule -->
<g id="edge7" class="edge"><title>GroceriesModule&#45;&gt;AppModule</title>
<path fill="none" stroke="black" d="M1019.99,-246C955.368,-246 858.914,-246 858.914,-246 858.914,-246 858.914,-276.977 858.914,-276.977"/>
<polygon fill="black" stroke="black" points="855.414,-276.977 858.914,-286.977 862.414,-276.978 855.414,-276.977"/>
</g>
<!-- BackendService -->
<g id="node10" class="node"><title>BackendService</title>
<ellipse fill="#fdb462" stroke="black" cx="390" cy="-240" rx="73.556" ry="18"/>
<text text-anchor="middle" x="390" y="-235.8" font-family="Times,serif" font-size="14.00">BackendService</text>
</g>
<!-- BackendService&#45;&gt;AppModule -->
<g id="edge9" class="edge"><title>BackendService&#45;&gt;AppModule</title>
<path fill="none" stroke="black" d="M459.569,-234C580.589,-234 817.086,-234 817.086,-234 817.086,-234 817.086,-276.716 817.086,-276.716"/>
<polygon fill="black" stroke="black" points="813.586,-276.716 817.086,-286.716 820.586,-276.716 813.586,-276.716"/>
</g>
<!-- LoginService -->
<g id="node11" class="node"><title>LoginService</title>
<ellipse fill="#fdb462" stroke="black" cx="235" cy="-240" rx="63.1209" ry="18"/>
<text text-anchor="middle" x="235" y="-235.8" font-family="Times,serif" font-size="14.00">LoginService</text>
</g>
<!-- LoginService&#45;&gt;AppModule -->
<g id="edge10" class="edge"><title>LoginService&#45;&gt;AppModule</title>
<path fill="none" stroke="black" d="M235,-258.106C235,-277.339 235,-305 235,-305 235,-305 786.077,-305 786.077,-305"/>
<polygon fill="black" stroke="black" points="786.077,-308.5 796.077,-305 786.077,-301.5 786.077,-308.5"/>
</g>
<!-- authProviders -->
<g id="node12" class="node"><title>authProviders</title>
<ellipse fill="#fdb462" stroke="black" cx="89" cy="-240" rx="64.8467" ry="18"/>
<text text-anchor="middle" x="89" y="-235.8" font-family="Times,serif" font-size="14.00">authProviders</text>
</g>
<!-- authProviders&#45;&gt;AppModule -->
<g id="edge11" class="edge"><title>authProviders&#45;&gt;AppModule</title>
<path fill="none" stroke="black" d="M89,-258.292C89,-280.206 89,-314 89,-314 89,-314 786.126,-314 786.126,-314"/>
<polygon fill="black" stroke="black" points="786.126,-317.5 796.126,-314 786.126,-310.5 786.126,-317.5"/>
</g>
<!-- GroceriesComponent -->
<g id="node13" class="node"><title>GroceriesComponent</title>
<polygon fill="#ffffb3" stroke="black" points="1834.74,-190 1699.26,-190 1699.26,-154 1834.74,-154 1834.74,-190"/>
<text text-anchor="middle" x="1767" y="-167.8" font-family="Times,serif" font-size="14.00">GroceriesComponent</text>
</g>
<!-- GroceriesComponent&#45;&gt;GroceriesModule -->
<g id="edge12" class="edge"><title>GroceriesComponent&#45;&gt;GroceriesModule</title>
<path fill="none" stroke="black" d="M1767,-190.243C1767,-197.43 1767,-204 1767,-204 1767,-204 1129.95,-204 1129.95,-204 1129.95,-204 1129.95,-211.578 1129.95,-211.578"/>
<polygon fill="black" stroke="black" points="1126.45,-211.578 1129.95,-221.578 1133.45,-211.578 1126.45,-211.578"/>
</g>
<!-- GroceryListComponent -->
<g id="node14" class="node"><title>GroceryListComponent</title>
<polygon fill="#ffffb3" stroke="black" points="1681.47,-190 1532.53,-190 1532.53,-154 1681.47,-154 1681.47,-190"/>
<text text-anchor="middle" x="1607" y="-167.8" font-family="Times,serif" font-size="14.00">GroceryListComponent</text>
</g>
<!-- GroceryListComponent&#45;&gt;GroceriesModule -->
<g id="edge14" class="edge"><title>GroceryListComponent&#45;&gt;GroceriesModule</title>
<path fill="none" stroke="black" d="M1607,-190.207C1607,-195.555 1607,-200 1607,-200 1607,-200 1125.93,-200 1125.93,-200 1125.93,-200 1125.93,-211.873 1125.93,-211.873"/>
<polygon fill="black" stroke="black" points="1122.43,-211.873 1125.93,-221.873 1129.43,-211.873 1122.43,-211.873"/>
</g>
<!-- ItemStatusPipe -->
<g id="node15" class="node"><title>ItemStatusPipe</title>
<polygon fill="#ffffb3" stroke="black" points="1514.27,-190 1413.73,-190 1413.73,-154 1514.27,-154 1514.27,-190"/>
<text text-anchor="middle" x="1464" y="-167.8" font-family="Times,serif" font-size="14.00">ItemStatusPipe</text>
</g>
<!-- ItemStatusPipe&#45;&gt;GroceriesModule -->
<g id="edge15" class="edge"><title>ItemStatusPipe&#45;&gt;GroceriesModule</title>
<path fill="none" stroke="black" d="M1464,-190.122C1464,-192.973 1464,-195 1464,-195 1464,-195 1121.9,-195 1121.9,-195 1121.9,-195 1121.9,-211.956 1121.9,-211.956"/>
<polygon fill="black" stroke="black" points="1118.4,-211.956 1121.9,-221.956 1125.4,-211.956 1118.4,-211.956"/>
</g>
<!-- GroceryService -->
<g id="node16" class="node"><title>GroceryService</title>
<ellipse fill="#fdb462" stroke="black" cx="1486" cy="-104" rx="71.7466" ry="18"/>
<text text-anchor="middle" x="1486" y="-99.8" font-family="Times,serif" font-size="14.00">GroceryService</text>
</g>
<!-- GroceryService&#45;&gt;GroceriesComponent -->
<g id="edge13" class="edge"><title>GroceryService&#45;&gt;GroceriesComponent</title>
<path fill="none" stroke="black" d="M1545.07,-114.598C1545.07,-127.041 1545.07,-146 1545.07,-146 1545.07,-146 1705.54,-146 1705.54,-146 1705.54,-146 1705.54,-146.794 1705.54,-146.794"/>
<polygon fill="black" stroke="black" points="1702.04,-143.942 1705.54,-153.942 1709.04,-143.942 1702.04,-143.942"/>
</g>
<!-- NativeScriptFormsModule -->
<g id="node17" class="node"><title>NativeScriptFormsModule</title>
<polygon fill="#8dd3c7" stroke="black" points="1878.08,-122 1875.08,-126 1854.08,-126 1851.08,-122 1711.92,-122 1711.92,-86 1878.08,-86 1878.08,-122"/>
<text text-anchor="middle" x="1795" y="-99.8" font-family="Times,serif" font-size="14.00">NativeScriptFormsModule</text>
</g>
<!-- NativeScriptFormsModule&#45;&gt;LoginModule -->
<g id="edge21" class="edge"><title>NativeScriptFormsModule&#45;&gt;LoginModule</title>
<path fill="none" stroke="black" d="M1856.46,-122.29C1856.46,-152.373 1856.46,-209 1856.46,-209 1856.46,-209 1188.56,-209 1188.56,-209 1188.56,-209 1188.56,-211.967 1188.56,-211.967"/>
<polygon fill="black" stroke="black" points="1185.06,-211.967 1188.56,-221.967 1192.06,-211.967 1185.06,-211.967"/>
</g>
<!-- NativeScriptFormsModule&#45;&gt;GroceriesModule -->
<g id="edge17" class="edge"><title>NativeScriptFormsModule&#45;&gt;GroceriesModule</title>
<path fill="none" stroke="black" d="M1773.41,-122.194C1773.41,-130.278 1773.41,-138 1773.41,-138 1773.41,-138 1107.76,-138 1107.76,-138 1107.76,-138 1107.76,-211.764 1107.76,-211.764"/>
<polygon fill="black" stroke="black" points="1104.26,-211.764 1107.76,-221.764 1111.26,-211.764 1104.26,-211.764"/>
</g>
<!-- groceriesRouting -->
<g id="node18" class="node"><title>groceriesRouting</title>
<polygon fill="#8dd3c7" stroke="black" points="1694.42,-122 1691.42,-126 1670.42,-126 1667.42,-122 1581.58,-122 1581.58,-86 1694.42,-86 1694.42,-122"/>
<text text-anchor="middle" x="1638" y="-99.8" font-family="Times,serif" font-size="14.00">groceriesRouting</text>
</g>
<!-- groceriesRouting&#45;&gt;GroceriesModule -->
<g id="edge18" class="edge"><title>groceriesRouting&#45;&gt;GroceriesModule</title>
<path fill="none" stroke="black" d="M1631.64,-122.058C1631.64,-126.495 1631.64,-130 1631.64,-130 1631.64,-130 1101.68,-130 1101.68,-130 1101.68,-130 1101.68,-211.836 1101.68,-211.836"/>
<polygon fill="black" stroke="black" points="1098.18,-211.836 1101.68,-221.836 1105.18,-211.836 1098.18,-211.836"/>
</g>
<!-- LoginComponent -->
<g id="node19" class="node"><title>LoginComponent</title>
<polygon fill="#ffffb3" stroke="black" points="2201.28,-190 2086.72,-190 2086.72,-154 2201.28,-154 2201.28,-190"/>
<text text-anchor="middle" x="2144" y="-167.8" font-family="Times,serif" font-size="14.00">LoginComponent</text>
</g>
<!-- LoginComponent&#45;&gt;LoginModule -->
<g id="edge19" class="edge"><title>LoginComponent&#45;&gt;LoginModule</title>
<path fill="none" stroke="black" d="M2144,-190.18C2144,-203.038 2144,-218 2144,-218 2144,-218 1225.62,-218 1225.62,-218 1225.62,-218 1225.62,-218.383 1225.62,-218.383"/>
<polygon fill="black" stroke="black" points="1222.12,-211.832 1225.62,-221.832 1229.12,-211.832 1222.12,-211.832"/>
</g>
<!-- loginRouting -->
<g id="node20" class="node"><title>loginRouting</title>
<polygon fill="#8dd3c7" stroke="black" points="2062.9,-190 2059.9,-194 2038.9,-194 2035.9,-190 1973.1,-190 1973.1,-154 2062.9,-154 2062.9,-190"/>
<text text-anchor="middle" x="2018" y="-167.8" font-family="Times,serif" font-size="14.00">loginRouting</text>
</g>
<!-- loginRouting&#45;&gt;LoginModule -->
<g id="edge22" class="edge"><title>loginRouting&#45;&gt;LoginModule</title>
<path fill="none" stroke="black" d="M2018,-190.103C2018,-201.086 2018,-213 2018,-213 2018,-213 1207.09,-213 1207.09,-213 1207.09,-213 1207.09,-213.884 1207.09,-213.884"/>
<polygon fill="black" stroke="black" points="1203.59,-211.841 1207.09,-221.841 1210.59,-211.841 1203.59,-211.841"/>
</g>
</g>
</svg>
