<?xml version="1.0" encoding="UTF-8" standalone="no"?>
<!DOCTYPE svg PUBLIC "-//W3C//DTD SVG 1.1//EN"
 "http://www.w3.org/Graphics/SVG/1.1/DTD/svg11.dtd">
<!-- Generated by graphviz version 2.38.0 (20140413.2041)
 -->
<!-- Title: dependencies Pages: 1 -->
<svg width="1649pt" height="284pt"
 viewBox="0.00 0.00 1649.00 284.00" xmlns="http://www.w3.org/2000/svg" xmlns:xlink="http://www.w3.org/1999/xlink">
<g id="graph0" class="graph" transform="scale(1 1) rotate(0) translate(4 280)">
<title>dependencies</title>
<polygon fill="white" stroke="none" points="-4,4 -4,-280 1645,-280 1645,4 -4,4"/>
<text text-anchor="start" x="799.509" y="-42.4" font-family="sans-serif" font-weight="bold" font-size="14.00">Legend</text>
<polygon fill="#ffffb3" stroke="none" points="586.5,-10 586.5,-30 606.5,-30 606.5,-10 586.5,-10"/>
<text text-anchor="start" x="610.129" y="-15.4" font-family="sans-serif" font-size="14.00"> &#160;Declarations</text>
<polygon fill="#8dd3c7" stroke="none" points="699.5,-10 699.5,-30 719.5,-30 719.5,-10 699.5,-10"/>
<text text-anchor="start" x="723.225" y="-15.4" font-family="sans-serif" font-size="14.00"> &#160;Module</text>
<polygon fill="#80b1d3" stroke="none" points="785.5,-10 785.5,-30 805.5,-30 805.5,-10 785.5,-10"/>
<text text-anchor="start" x="809.281" y="-15.4" font-family="sans-serif" font-size="14.00"> &#160;Bootstrap</text>
<polygon fill="#fdb462" stroke="none" points="882.5,-10 882.5,-30 902.5,-30 902.5,-10 882.5,-10"/>
<text text-anchor="start" x="906.173" y="-15.4" font-family="sans-serif" font-size="14.00"> &#160;Providers</text>
<polygon fill="#fb8072" stroke="none" points="978.5,-10 978.5,-30 998.5,-30 998.5,-10 978.5,-10"/>
<text text-anchor="start" x="1002.23" y="-15.4" font-family="sans-serif" font-size="14.00"> &#160;Exports</text>
<g id="clust1" class="cluster"><title>cluster_AppModule</title>
<polygon fill="none" stroke="black" stroke-dasharray="1,5" points="8,-70 8,-268 1633,-268 1633,-70 8,-70"/>
</g>
<g id="clust2" class="cluster"><title>cluster_AppModule_declarations</title>
<polygon fill="none" stroke="black" points="1503,-78 1503,-130 1625,-130 1625,-78 1503,-78"/>
</g>
<g id="clust4" class="cluster"><title>cluster_AppModule_imports</title>
<polygon fill="none" stroke="black" points="480,-78 480,-130 1495,-130 1495,-78 480,-78"/>
</g>
<g id="clust6" class="cluster"><title>cluster_AppModule_bootstrap</title>
<polygon fill="none" stroke="black" points="698,-208 698,-260 822,-260 822,-208 698,-208"/>
</g>
<g id="clust7" class="cluster"><title>cluster_AppModule_providers</title>
<polygon fill="none" stroke="black" points="16,-78 16,-130 472,-130 472,-78 16,-78"/>
</g>
<!-- AppComponent -->
<g id="node1" class="node"><title>AppComponent</title>
<polygon fill="#ffffb3" stroke="black" points="1616.94,-122 1511.06,-122 1511.06,-86 1616.94,-86 1616.94,-122"/>
<text text-anchor="middle" x="1564" y="-99.8" font-family="Times,serif" font-size="14.00">AppComponent</text>
</g>
<!-- AppModule -->
<g id="node2" class="node"><title>AppModule</title>
<polygon fill="#8dd3c7" stroke="black" points="801.657,-187 798.657,-191 777.657,-191 774.657,-187 718.343,-187 718.343,-151 801.657,-151 801.657,-187"/>
<text text-anchor="middle" x="760" y="-164.8" font-family="Times,serif" font-size="14.00">AppModule</text>
</g>
<!-- AppComponent&#45;&gt;AppModule -->
<g id="edge1" class="edge"><title>AppComponent&#45;&gt;AppModule</title>
<path fill="none" stroke="black" d="M1564,-122.011C1564,-144.485 1564,-180 1564,-180 1564,-180 811.814,-180 811.814,-180"/>
<polygon fill="black" stroke="black" points="811.814,-176.5 801.814,-180 811.814,-183.5 811.814,-176.5"/>
</g>
<!-- AppComponent  -->
<g id="node9" class="node"><title>AppComponent </title>
<polygon fill="#80b1d3" stroke="black" points="814.439,-252 705.561,-252 705.561,-216 814.439,-216 814.439,-252"/>
<text text-anchor="middle" x="760" y="-229.8" font-family="Times,serif" font-size="14.00">AppComponent </text>
</g>
<!-- AppModule&#45;&gt;AppComponent  -->
<g id="edge8" class="edge"><title>AppModule&#45;&gt;AppComponent </title>
<path fill="none" stroke="black" stroke-dasharray="1,5" d="M760,-187.106C760,-187.106 760,-205.991 760,-205.991"/>
<polygon fill="black" stroke="black" points="756.5,-205.991 760,-215.991 763.5,-205.991 756.5,-205.991"/>
</g>
<!-- NativeScriptModule -->
<g id="node3" class="node"><title>NativeScriptModule</title>
<polygon fill="#8dd3c7" stroke="black" points="1487.31,-122 1484.31,-126 1463.31,-126 1460.31,-122 1356.69,-122 1356.69,-86 1487.31,-86 1487.31,-122"/>
<text text-anchor="middle" x="1422" y="-99.8" font-family="Times,serif" font-size="14.00">NativeScriptModule</text>
</g>
<!-- NativeScriptModule&#45;&gt;AppModule -->
<g id="edge2" class="edge"><title>NativeScriptModule&#45;&gt;AppModule</title>
<path fill="none" stroke="black" d="M1422,-122.129C1422,-142.572 1422,-173 1422,-173 1422,-173 811.662,-173 811.662,-173"/>
<polygon fill="black" stroke="black" points="811.662,-169.5 801.662,-173 811.662,-176.5 811.662,-169.5"/>
</g>
<!-- NativeScriptHttpModule -->
<g id="node4" class="node"><title>NativeScriptHttpModule</title>
<polygon fill="#8dd3c7" stroke="black" points="1338.69,-122 1335.69,-126 1314.69,-126 1311.69,-122 1183.31,-122 1183.31,-86 1338.69,-86 1338.69,-122"/>
<text text-anchor="middle" x="1261" y="-99.8" font-family="Times,serif" font-size="14.00">NativeScriptHttpModule</text>
</g>
<!-- NativeScriptHttpModule&#45;&gt;AppModule -->
<g id="edge3" class="edge"><title>NativeScriptHttpModule&#45;&gt;AppModule</title>
<path fill="none" stroke="black" d="M1261,-122.267C1261,-140.555 1261,-166 1261,-166 1261,-166 811.853,-166 811.853,-166"/>
<polygon fill="black" stroke="black" points="811.853,-162.5 801.853,-166 811.853,-169.5 811.853,-162.5"/>
</g>
<!-- NativeScriptRouterModule -->
<g id="node5" class="node"><title>NativeScriptRouterModule</title>
<polygon fill="#8dd3c7" stroke="black" points="1165.41,-122 1162.41,-126 1141.41,-126 1138.41,-122 996.591,-122 996.591,-86 1165.41,-86 1165.41,-122"/>
<text text-anchor="middle" x="1081" y="-99.8" font-family="Times,serif" font-size="14.00">NativeScriptRouterModule</text>
</g>
<!-- NativeScriptRouterModule&#45;&gt;AppModule -->
<g id="edge4" class="edge"><title>NativeScriptRouterModule&#45;&gt;AppModule</title>
<path fill="none" stroke="black" d="M1081,-122.009C1081,-138.049 1081,-159 1081,-159 1081,-159 811.965,-159 811.965,-159"/>
<polygon fill="black" stroke="black" points="811.965,-155.5 801.965,-159 811.965,-162.5 811.965,-155.5"/>
</g>
<!-- NativeScriptRouterModule.forRoot(args) -->
<g id="node6" class="node"><title>NativeScriptRouterModule.forRoot(args)</title>
<polygon fill="#8dd3c7" stroke="black" points="979.098,-122 976.098,-126 955.098,-126 952.098,-122 730.902,-122 730.902,-86 979.098,-86 979.098,-122"/>
<text text-anchor="middle" x="855" y="-99.8" font-family="Times,serif" font-size="14.00">NativeScriptRouterModule.forRoot(args)</text>
</g>
<!-- NativeScriptRouterModule.forRoot(args)&#45;&gt;AppModule -->
<g id="edge5" class="edge"><title>NativeScriptRouterModule.forRoot(args)&#45;&gt;AppModule</title>
<path fill="none" stroke="black" d="M766.39,-122.106C766.39,-122.106 766.39,-140.991 766.39,-140.991"/>
<polygon fill="black" stroke="black" points="762.89,-140.991 766.39,-150.991 769.89,-140.991 762.89,-140.991"/>
</g>
<!-- LoginModule -->
<g id="node7" class="node"><title>LoginModule</title>
<polygon fill="#8dd3c7" stroke="black" points="712.493,-122 709.493,-126 688.493,-126 685.493,-122 619.507,-122 619.507,-86 712.493,-86 712.493,-122"/>
<text text-anchor="middle" x="666" y="-99.8" font-family="Times,serif" font-size="14.00">LoginModule</text>
</g>
<!-- LoginModule&#45;&gt;AppModule -->
<g id="edge6" class="edge"><title>LoginModule&#45;&gt;AppModule</title>
<path fill="none" stroke="black" d="M712.711,-104C719.668,-104 724.562,-104 724.562,-104 724.562,-104 724.562,-140.894 724.562,-140.894"/>
<polygon fill="black" stroke="black" points="721.062,-140.894 724.562,-150.894 728.062,-140.894 721.062,-140.894"/>
</g>
<!-- GroceriesModule -->
<g id="node8" class="node"><title>GroceriesModule</title>
<polygon fill="#8dd3c7" stroke="black" points="601.957,-122 598.957,-126 577.957,-126 574.957,-122 488.043,-122 488.043,-86 601.957,-86 601.957,-122"/>
<text text-anchor="middle" x="545" y="-99.8" font-family="Times,serif" font-size="14.00">GroceriesModule</text>
</g>
<!-- GroceriesModule&#45;&gt;AppModule -->
<g id="edge7" class="edge"><title>GroceriesModule&#45;&gt;AppModule</title>
<path fill="none" stroke="black" d="M545,-122.009C545,-138.049 545,-159 545,-159 545,-159 708.291,-159 708.291,-159"/>
<polygon fill="black" stroke="black" points="708.291,-162.5 718.291,-159 708.291,-155.5 708.291,-162.5"/>
</g>
<!-- BackendService -->
<g id="node10" class="node"><title>BackendService</title>
<ellipse fill="#fdb462" stroke="black" cx="390" cy="-104" rx="73.556" ry="18"/>
<text text-anchor="middle" x="390" y="-99.8" font-family="Times,serif" font-size="14.00">BackendService</text>
</g>
<!-- BackendService&#45;&gt;AppModule -->
<g id="edge9" class="edge"><title>BackendService&#45;&gt;AppModule</title>
<path fill="none" stroke="black" d="M390,-122.267C390,-140.555 390,-166 390,-166 390,-166 708.276,-166 708.276,-166"/>
<polygon fill="black" stroke="black" points="708.276,-169.5 718.276,-166 708.275,-162.5 708.276,-169.5"/>
</g>
<!-- LoginService -->
<g id="node11" class="node"><title>LoginService</title>
<ellipse fill="#fdb462" stroke="black" cx="235" cy="-104" rx="63.1209" ry="18"/>
<text text-anchor="middle" x="235" y="-99.8" font-family="Times,serif" font-size="14.00">LoginService</text>
</g>
<!-- LoginService&#45;&gt;AppModule -->
<g id="edge10" class="edge"><title>LoginService&#45;&gt;AppModule</title>
<path fill="none" stroke="black" d="M235,-122.129C235,-142.572 235,-173 235,-173 235,-173 707.925,-173 707.925,-173"/>
<polygon fill="black" stroke="black" points="707.925,-176.5 717.925,-173 707.924,-169.5 707.925,-176.5"/>
</g>
<!-- authProviders -->
<g id="node12" class="node"><title>authProviders</title>
<ellipse fill="#fdb462" stroke="black" cx="89" cy="-104" rx="64.8467" ry="18"/>
<text text-anchor="middle" x="89" y="-99.8" font-family="Times,serif" font-size="14.00">authProviders</text>
</g>
<!-- authProviders&#45;&gt;AppModule -->
<g id="edge11" class="edge"><title>authProviders&#45;&gt;AppModule</title>
<path fill="none" stroke="black" d="M89,-122.011C89,-144.485 89,-180 89,-180 89,-180 708.279,-180 708.279,-180"/>
<polygon fill="black" stroke="black" points="708.28,-183.5 718.279,-180 708.279,-176.5 708.28,-183.5"/>
</g>
</g>
</svg>
