<?xml version="1.0" encoding="UTF-8" standalone="no"?>
<!DOCTYPE svg PUBLIC "-//W3C//DTD SVG 1.1//EN"
 "http://www.w3.org/Graphics/SVG/1.1/DTD/svg11.dtd">
<!-- Generated by graphviz version 2.38.0 (20140413.2041)
 -->
<!-- Title: dependencies Pages: 1 -->
<svg width="616pt" height="211pt"
 viewBox="0.00 0.00 616.00 211.00" xmlns="http://www.w3.org/2000/svg" xmlns:xlink="http://www.w3.org/1999/xlink">
<g id="graph0" class="graph" transform="scale(1 1) rotate(0) translate(4 207)">
<title>dependencies</title>
<polygon fill="white" stroke="none" points="-4,4 -4,-207 612,-207 612,4 -4,4"/>
<text text-anchor="start" x="283.009" y="-42.4" font-family="sans-serif" font-weight="bold" font-size="14.00">Legend</text>
<polygon fill="#ffffb3" stroke="none" points="70,-10 70,-30 90,-30 90,-10 70,-10"/>
<text text-anchor="start" x="93.629" y="-15.4" font-family="sans-serif" font-size="14.00"> &#160;Declarations</text>
<polygon fill="#8dd3c7" stroke="none" points="183,-10 183,-30 203,-30 203,-10 183,-10"/>
<text text-anchor="start" x="206.725" y="-15.4" font-family="sans-serif" font-size="14.00"> &#160;Module</text>
<polygon fill="#80b1d3" stroke="none" points="269,-10 269,-30 289,-30 289,-10 269,-10"/>
<text text-anchor="start" x="292.781" y="-15.4" font-family="sans-serif" font-size="14.00"> &#160;Bootstrap</text>
<polygon fill="#fdb462" stroke="none" points="366,-10 366,-30 386,-30 386,-10 366,-10"/>
<text text-anchor="start" x="389.673" y="-15.4" font-family="sans-serif" font-size="14.00"> &#160;Providers</text>
<polygon fill="#fb8072" stroke="none" points="462,-10 462,-30 482,-30 482,-10 462,-10"/>
<text text-anchor="start" x="485.726" y="-15.4" font-family="sans-serif" font-size="14.00"> &#160;Exports</text>
<g id="clust1" class="cluster"><title>cluster_LoginModule</title>
<polygon fill="none" stroke="black" stroke-dasharray="1,5" points="8,-70 8,-195 600,-195 600,-70 8,-70"/>
</g>
<g id="clust2" class="cluster"><title>cluster_LoginModule_declarations</title>
<polygon fill="none" stroke="black" points="462,-78 462,-130 592,-130 592,-78 462,-78"/>
</g>
<g id="clust4" class="cluster"><title>cluster_LoginModule_imports</title>
<polygon fill="none" stroke="black" points="16,-78 16,-130 454,-130 454,-78 16,-78"/>
</g>
<!-- LoginComponent -->
<g id="node1" class="node"><title>LoginComponent</title>
<polygon fill="#ffffb3" stroke="black" points="584.276,-122 469.724,-122 469.724,-86 584.276,-86 584.276,-122"/>
<text text-anchor="middle" x="527" y="-99.8" font-family="Times,serif" font-size="14.00">LoginComponent</text>
</g>
<!-- LoginModule -->
<g id="node2" class="node"><title>LoginModule</title>
<polygon fill="#8dd3c7" stroke="black" points="344.493,-187 341.493,-191 320.493,-191 317.493,-187 251.507,-187 251.507,-151 344.493,-151 344.493,-187"/>
<text text-anchor="middle" x="298" y="-164.8" font-family="Times,serif" font-size="14.00">LoginModule</text>
</g>
<!-- LoginComponent&#45;&gt;LoginModule -->
<g id="edge1" class="edge"><title>LoginComponent&#45;&gt;LoginModule</title>
<path fill="none" stroke="black" d="M527,-122.106C527,-141.339 527,-169 527,-169 527,-169 354.618,-169 354.618,-169"/>
<polygon fill="black" stroke="black" points="354.618,-165.5 344.618,-169 354.618,-172.5 354.618,-165.5"/>
</g>
<!-- NativeScriptModule -->
<g id="node3" class="node"><title>NativeScriptModule</title>
<polygon fill="#8dd3c7" stroke="black" points="446.306,-122 443.306,-126 422.306,-126 419.306,-122 315.694,-122 315.694,-86 446.306,-86 446.306,-122"/>
<text text-anchor="middle" x="381" y="-99.8" font-family="Times,serif" font-size="14.00">NativeScriptModule</text>
</g>
<!-- NativeScriptModule&#45;&gt;LoginModule -->
<g id="edge2" class="edge"><title>NativeScriptModule&#45;&gt;LoginModule</title>
<path fill="none" stroke="black" d="M330.172,-122.106C330.172,-122.106 330.172,-140.991 330.172,-140.991"/>
<polygon fill="black" stroke="black" points="326.672,-140.991 330.172,-150.991 333.672,-140.991 326.672,-140.991"/>
</g>
<!-- NativeScriptFormsModule -->
<g id="node4" class="node"><title>NativeScriptFormsModule</title>
<polygon fill="#8dd3c7" stroke="black" points="298.084,-122 295.084,-126 274.084,-126 271.084,-122 131.916,-122 131.916,-86 298.084,-86 298.084,-122"/>
<text text-anchor="middle" x="215" y="-99.8" font-family="Times,serif" font-size="14.00">NativeScriptFormsModule</text>
</g>
<!-- NativeScriptFormsModule&#45;&gt;LoginModule -->
<g id="edge3" class="edge"><title>NativeScriptFormsModule&#45;&gt;LoginModule</title>
<path fill="none" stroke="black" d="M274.773,-122.106C274.773,-122.106 274.773,-140.991 274.773,-140.991"/>
<polygon fill="black" stroke="black" points="271.273,-140.991 274.773,-150.991 278.273,-140.991 271.273,-140.991"/>
</g>
<!-- loginRouting -->
<g id="node5" class="node"><title>loginRouting</title>
<polygon fill="#8dd3c7" stroke="black" points="113.899,-122 110.899,-126 89.8991,-126 86.8991,-122 24.1009,-122 24.1009,-86 113.899,-86 113.899,-122"/>
<text text-anchor="middle" x="69" y="-99.8" font-family="Times,serif" font-size="14.00">loginRouting</text>
</g>
<!-- loginRouting&#45;&gt;LoginModule -->
<g id="edge4" class="edge"><title>loginRouting&#45;&gt;LoginModule</title>
<path fill="none" stroke="black" d="M69,-122.106C69,-141.339 69,-169 69,-169 69,-169 241.382,-169 241.382,-169"/>
<polygon fill="black" stroke="black" points="241.382,-172.5 251.382,-169 241.382,-165.5 241.382,-172.5"/>
</g>
</g>
</svg>
